<svg width="21" height="18" viewBox="0 0 21 18" fill="none" xmlns="http://www.w3.org/2000/svg">
<path d="M8.029 17.0062C7.82127 17.21 7.55159 17.3228 7.27199 17.3228C6.9924 17.3228 6.72271 17.21 6.51499 17.0062L0.469902 10.8996C0.32204 10.7552 0.203774 10.5785 0.12281 10.381C0.0418456 10.1835 0 9.96968 0 9.7534C0 9.53712 0.0418456 9.32326 0.12281 9.12577C0.203774 8.92827 0.32204 8.75157 0.469902 8.60718L1.22691 7.84237C1.53831 7.53624 1.9429 7.36678 2.36241 7.36678C2.78192 7.36678 3.18652 7.53624 3.49792 7.84237L7.27199 11.6545L17.4688 1.35639C17.7801 1.05026 18.1847 0.880798 18.6043 0.880798C19.0238 0.880798 19.4284 1.05026 19.7398 1.35639L20.4968 2.1212C20.6446 2.26559 20.7629 2.44229 20.8439 2.63979C20.9248 2.83728 20.9667 3.05114 20.9667 3.26742C20.9667 3.4837 20.9248 3.69756 20.8439 3.89505C20.7629 4.09255 20.6446 4.26925 20.4968 4.41364L8.029 17.0062Z" fill="white"/>
</svg>
