<svg width="21" height="17" viewBox="0 0 21 17" fill="none" xmlns="http://www.w3.org/2000/svg">
<path d="M8.029 16.6645C7.82127 16.8683 7.55159 16.9811 7.27199 16.9811C6.9924 16.9811 6.72271 16.8683 6.51499 16.6645L0.469902 10.558C0.32204 10.4136 0.203774 10.2369 0.12281 10.0394C0.0418456 9.8419 0 9.62804 0 9.41176C0 9.19547 0.0418456 8.98162 0.12281 8.78412C0.203774 8.58663 0.32204 8.40993 0.469902 8.26554L1.22691 7.50073C1.53831 7.1946 1.9429 7.02513 2.36241 7.02513C2.78192 7.02513 3.18652 7.1946 3.49792 7.50073L7.27199 11.3129L17.4688 1.01475C17.7801 0.708615 18.1847 0.539154 18.6043 0.539154C19.0238 0.539154 19.4284 0.708615 19.7398 1.01475L20.4968 1.77955C20.6446 1.92395 20.7629 2.10065 20.8439 2.29814C20.9248 2.49564 20.9667 2.70949 20.9667 2.92578C20.9667 3.14206 20.9248 3.35592 20.8439 3.55341C20.7629 3.7509 20.6446 3.92761 20.4968 4.072L8.029 16.6645Z" fill="white"/>
</svg>
