<svg width="21" height="18" viewBox="0 0 21 18" fill="none" xmlns="http://www.w3.org/2000/svg">
<path d="M8.029 16.8353C7.82127 17.0392 7.55159 17.1519 7.27199 17.1519C6.9924 17.1519 6.72271 17.0392 6.51499 16.8353L0.469902 10.7288C0.32204 10.5844 0.203774 10.4077 0.12281 10.2102C0.0418456 10.0127 0 9.79885 0 9.58256C0 9.36628 0.0418456 9.15242 0.12281 8.95493C0.203774 8.75743 0.32204 8.58073 0.469902 8.43634L1.22691 7.67153C1.53831 7.3654 1.9429 7.19594 2.36241 7.19594C2.78192 7.19594 3.18652 7.3654 3.49792 7.67153L7.27199 11.4837L17.4688 1.18555C17.7801 0.879422 18.1847 0.709961 18.6043 0.709961C19.0238 0.709961 19.4284 0.879422 19.7398 1.18555L20.4968 1.95036C20.6446 2.09475 20.7629 2.27145 20.8439 2.46895C20.9248 2.66644 20.9667 2.8803 20.9667 3.09658C20.9667 3.31287 20.9248 3.52672 20.8439 3.72422C20.7629 3.92171 20.6446 4.09841 20.4968 4.2428L8.029 16.8353Z" fill="white"/>
</svg>
