<svg width="25" height="25" viewBox="0 0 25 25" fill="none" xmlns="http://www.w3.org/2000/svg">
<path d="M12.4896 2.08337C6.73956 2.08337 2.08331 6.75004 2.08331 12.5C2.08331 18.25 6.73956 22.9167 12.4896 22.9167C18.25 22.9167 22.9166 18.25 22.9166 12.5C22.9166 6.75004 18.25 2.08337 12.4896 2.08337ZM12.5 20.8334C7.89581 20.8334 4.16665 17.1042 4.16665 12.5C4.16665 7.89587 7.89581 4.16671 12.5 4.16671C17.1041 4.16671 20.8333 7.89587 20.8333 12.5C20.8333 17.1042 17.1041 20.8334 12.5 20.8334Z" fill="#F49B33"/>
<path d="M13.0208 7.29163H11.4583V13.5416L16.9271 16.8229L17.7083 15.5416L13.0208 12.7604V7.29163Z" fill="#F49B33"/>
</svg>
