<svg width="25" height="25" viewBox="0 0 25 25" fill="none" xmlns="http://www.w3.org/2000/svg">
<path d="M8.33333 14.5834C8.03819 14.5834 7.79063 14.4834 7.59062 14.2834C7.39132 14.0841 7.29167 13.8368 7.29167 13.5417C7.29167 13.2466 7.39132 12.999 7.59062 12.799C7.79063 12.5997 8.03819 12.5 8.33333 12.5C8.62847 12.5 8.87604 12.5997 9.07604 12.799C9.27535 12.999 9.375 13.2466 9.375 13.5417C9.375 13.8368 9.27535 14.0841 9.07604 14.2834C8.87604 14.4834 8.62847 14.5834 8.33333 14.5834ZM12.5 14.5834C12.2049 14.5834 11.9576 14.4834 11.7583 14.2834C11.5583 14.0841 11.4583 13.8368 11.4583 13.5417C11.4583 13.2466 11.5583 12.999 11.7583 12.799C11.9576 12.5997 12.2049 12.5 12.5 12.5C12.7951 12.5 13.0427 12.5997 13.2427 12.799C13.442 12.999 13.5417 13.2466 13.5417 13.5417C13.5417 13.8368 13.442 14.0841 13.2427 14.2834C13.0427 14.4834 12.7951 14.5834 12.5 14.5834ZM16.6667 14.5834C16.3715 14.5834 16.1243 14.4834 15.925 14.2834C15.725 14.0841 15.625 13.8368 15.625 13.5417C15.625 13.2466 15.725 12.999 15.925 12.799C16.1243 12.5997 16.3715 12.5 16.6667 12.5C16.9618 12.5 17.209 12.5997 17.4083 12.799C17.6083 12.999 17.7083 13.2466 17.7083 13.5417C17.7083 13.8368 17.6083 14.0841 17.4083 14.2834C17.209 14.4834 16.9618 14.5834 16.6667 14.5834ZM5.20833 22.9167C4.63542 22.9167 4.14479 22.7129 3.73646 22.3052C3.32882 21.8969 3.125 21.4063 3.125 20.8334V6.25004C3.125 5.67712 3.32882 5.18685 3.73646 4.77921C4.14479 4.37087 4.63542 4.16671 5.20833 4.16671H6.25V2.08337H8.33333V4.16671H16.6667V2.08337H18.75V4.16671H19.7917C20.3646 4.16671 20.8552 4.37087 21.2635 4.77921C21.6712 5.18685 21.875 5.67712 21.875 6.25004V20.8334C21.875 21.4063 21.6712 21.8969 21.2635 22.3052C20.8552 22.7129 20.3646 22.9167 19.7917 22.9167H5.20833ZM5.20833 20.8334H19.7917V10.4167H5.20833V20.8334Z" fill="#F49B33"/>
</svg>
