<svg width="20" height="20" viewBox="0 0 20 20" fill="none" xmlns="http://www.w3.org/2000/svg">
<path d="M6.66667 11.6667C6.43056 11.6667 6.2325 11.5867 6.0725 11.4267C5.91306 11.2673 5.83333 11.0695 5.83333 10.8334C5.83333 10.5973 5.91306 10.3992 6.0725 10.2392C6.2325 10.0798 6.43056 10.0001 6.66667 10.0001C6.90278 10.0001 7.10083 10.0798 7.26083 10.2392C7.42028 10.3992 7.5 10.5973 7.5 10.8334C7.5 11.0695 7.42028 11.2673 7.26083 11.4267C7.10083 11.5867 6.90278 11.6667 6.66667 11.6667ZM10 11.6667C9.76389 11.6667 9.56611 11.5867 9.40667 11.4267C9.24667 11.2673 9.16667 11.0695 9.16667 10.8334C9.16667 10.5973 9.24667 10.3992 9.40667 10.2392C9.56611 10.0798 9.76389 10.0001 10 10.0001C10.2361 10.0001 10.4342 10.0798 10.5942 10.2392C10.7536 10.3992 10.8333 10.5973 10.8333 10.8334C10.8333 11.0695 10.7536 11.2673 10.5942 11.4267C10.4342 11.5867 10.2361 11.6667 10 11.6667ZM13.3333 11.6667C13.0972 11.6667 12.8994 11.5867 12.74 11.4267C12.58 11.2673 12.5 11.0695 12.5 10.8334C12.5 10.5973 12.58 10.3992 12.74 10.2392C12.8994 10.0798 13.0972 10.0001 13.3333 10.0001C13.5694 10.0001 13.7672 10.0798 13.9267 10.2392C14.0867 10.3992 14.1667 10.5973 14.1667 10.8334C14.1667 11.0695 14.0867 11.2673 13.9267 11.4267C13.7672 11.5867 13.5694 11.6667 13.3333 11.6667ZM4.16667 18.3334C3.70833 18.3334 3.31583 18.1704 2.98917 17.8442C2.66306 17.5176 2.5 17.1251 2.5 16.6667V5.00008C2.5 4.54175 2.66306 4.14953 2.98917 3.82341C3.31583 3.49675 3.70833 3.33341 4.16667 3.33341H5V1.66675H6.66667V3.33341H13.3333V1.66675H15V3.33341H15.8333C16.2917 3.33341 16.6842 3.49675 17.0108 3.82341C17.3369 4.14953 17.5 4.54175 17.5 5.00008V16.6667C17.5 17.1251 17.3369 17.5176 17.0108 17.8442C16.6842 18.1704 16.2917 18.3334 15.8333 18.3334H4.16667ZM4.16667 16.6667H15.8333V8.33341H4.16667V16.6667Z" fill="#F49B33"/>
</svg>
