<svg width="20" height="20" viewBox="0 0 20 20" fill="none" xmlns="http://www.w3.org/2000/svg">
<path d="M5.00033 16.6667L6.25033 13.5417C6.37533 13.2223 6.57672 12.9687 6.85449 12.7809C7.13227 12.5931 7.44477 12.4995 7.79199 12.5H9.16699V9.14587C7.04199 9.07643 5.2606 8.76393 3.82283 8.20837C2.38505 7.65282 1.66644 7.00004 1.66699 6.25004C1.66699 5.44449 2.47949 4.75699 4.10449 4.18754C5.72949 3.6181 7.69477 3.33337 10.0003 3.33337C12.3198 3.33337 14.2887 3.6181 15.907 4.18754C17.5253 4.75699 18.3342 5.44449 18.3337 6.25004C18.3337 7.00004 17.6148 7.65282 16.177 8.20837C14.7392 8.76393 12.9581 9.07643 10.8337 9.14587V12.5H12.2087C12.542 12.5 12.8512 12.5939 13.1362 12.7817C13.4212 12.9695 13.6259 13.2228 13.7503 13.5417L15.0003 16.6667H13.3337L12.3337 14.1667H7.66699L6.66699 16.6667H5.00033Z" fill="#F49B33"/>
</svg>
