<svg width="20" height="20" viewBox="0 0 20 20" fill="none" xmlns="http://www.w3.org/2000/svg">
<path d="M4.99999 16.6666L6.24999 13.5416C6.37499 13.2221 6.57638 12.9685 6.85416 12.7808C7.13194 12.593 7.44444 12.4994 7.79166 12.4999H9.16666V9.14575C7.04166 9.07631 5.26027 8.76381 3.82249 8.20825C2.38471 7.6527 1.6661 6.99992 1.66666 6.24992C1.66666 5.44436 2.47916 4.75686 4.10416 4.18742C5.72916 3.61797 7.69443 3.33325 9.99999 3.33325C12.3194 3.33325 14.2883 3.61797 15.9067 4.18742C17.525 4.75686 18.3339 5.44436 18.3333 6.24992C18.3333 6.99992 17.6144 7.6527 16.1767 8.20825C14.7389 8.76381 12.9578 9.07631 10.8333 9.14575V12.4999H12.2083C12.5417 12.4999 12.8508 12.5938 13.1358 12.7816C13.4208 12.9694 13.6255 13.2227 13.75 13.5416L15 16.6666H13.3333L12.3333 14.1666H7.66666L6.66666 16.6666H4.99999Z" fill="#F49B33"/>
</svg>
