<svg width="22" height="22" viewBox="0 0 22 22" fill="none" xmlns="http://www.w3.org/2000/svg">
<path d="M5.50004 18.3333L6.87504 14.8958C7.01254 14.5444 7.23407 14.2654 7.53963 14.0589C7.84518 13.8523 8.18893 13.7493 8.57088 13.75H10.0834V10.0604C7.74587 9.98399 5.78635 9.64024 4.20479 9.02913C2.62324 8.41802 1.83276 7.69996 1.83337 6.87496C1.83337 5.98885 2.72712 5.2326 4.51462 4.60621C6.30212 3.97982 8.46393 3.66663 11 3.66663C13.5514 3.66663 15.7172 3.97982 17.4974 4.60621C19.2775 5.2326 20.1673 5.98885 20.1667 6.87496C20.1667 7.69996 19.3759 8.41802 17.7944 9.02913C16.2128 9.64024 14.2536 9.98399 11.9167 10.0604V13.75H13.4292C13.7959 13.75 14.136 13.8532 14.4495 14.0598C14.763 14.2663 14.9882 14.545 15.125 14.8958L16.5 18.3333H14.6667L13.5667 15.5833H8.43337L7.33337 18.3333H5.50004Z" fill="#F49B33"/>
</svg>
