<svg width="20" height="20" viewBox="0 0 20 20" fill="none" xmlns="http://www.w3.org/2000/svg">
<path d="M6.66667 11.6666C6.43056 11.6666 6.2325 11.5866 6.0725 11.4266C5.91306 11.2672 5.83333 11.0694 5.83333 10.8333C5.83333 10.5972 5.91306 10.3991 6.0725 10.2391C6.2325 10.0797 6.43056 9.99996 6.66667 9.99996C6.90278 9.99996 7.10083 10.0797 7.26083 10.2391C7.42028 10.3991 7.5 10.5972 7.5 10.8333C7.5 11.0694 7.42028 11.2672 7.26083 11.4266C7.10083 11.5866 6.90278 11.6666 6.66667 11.6666ZM10 11.6666C9.76389 11.6666 9.56611 11.5866 9.40667 11.4266C9.24667 11.2672 9.16667 11.0694 9.16667 10.8333C9.16667 10.5972 9.24667 10.3991 9.40667 10.2391C9.56611 10.0797 9.76389 9.99996 10 9.99996C10.2361 9.99996 10.4342 10.0797 10.5942 10.2391C10.7536 10.3991 10.8333 10.5972 10.8333 10.8333C10.8333 11.0694 10.7536 11.2672 10.5942 11.4266C10.4342 11.5866 10.2361 11.6666 10 11.6666ZM13.3333 11.6666C13.0972 11.6666 12.8994 11.5866 12.74 11.4266C12.58 11.2672 12.5 11.0694 12.5 10.8333C12.5 10.5972 12.58 10.3991 12.74 10.2391C12.8994 10.0797 13.0972 9.99996 13.3333 9.99996C13.5694 9.99996 13.7672 10.0797 13.9267 10.2391C14.0867 10.3991 14.1667 10.5972 14.1667 10.8333C14.1667 11.0694 14.0867 11.2672 13.9267 11.4266C13.7672 11.5866 13.5694 11.6666 13.3333 11.6666ZM4.16667 18.3333C3.70833 18.3333 3.31583 18.1702 2.98917 17.8441C2.66306 17.5175 2.5 17.125 2.5 16.6666V4.99996C2.5 4.54163 2.66306 4.1494 2.98917 3.82329C3.31583 3.49663 3.70833 3.33329 4.16667 3.33329H5V1.66663H6.66667V3.33329H13.3333V1.66663H15V3.33329H15.8333C16.2917 3.33329 16.6842 3.49663 17.0108 3.82329C17.3369 4.1494 17.5 4.54163 17.5 4.99996V16.6666C17.5 17.125 17.3369 17.5175 17.0108 17.8441C16.6842 18.1702 16.2917 18.3333 15.8333 18.3333H4.16667ZM4.16667 16.6666H15.8333V8.33329H4.16667V16.6666Z" fill="#F49B33"/>
</svg>
