<svg width="20" height="20" viewBox="0 0 20 20" fill="none" xmlns="http://www.w3.org/2000/svg">
<path d="M13.3337 14.1666V15.8333H1.66699V14.1666C1.66699 14.1666 1.66699 10.8333 7.50032 10.8333C13.3337 10.8333 13.3337 14.1666 13.3337 14.1666ZM10.417 6.24996C10.417 5.6731 10.2459 5.10919 9.92544 4.62955C9.60496 4.14991 9.14944 3.77607 8.61648 3.55531C8.08353 3.33456 7.49709 3.2768 6.93131 3.38934C6.36553 3.50188 5.84583 3.77966 5.43793 4.18757C5.03003 4.59547 4.75224 5.11517 4.6397 5.68095C4.52716 6.24673 4.58492 6.83317 4.80568 7.36612C5.02643 7.89907 5.40027 8.3546 5.87991 8.67508C6.35956 8.99557 6.92346 9.16663 7.50032 9.16663C8.27387 9.16663 9.01574 8.85934 9.56272 8.31236C10.1097 7.76538 10.417 7.02351 10.417 6.24996ZM13.2837 10.8333C13.7959 11.2298 14.2151 11.7337 14.5117 12.3096C14.8083 12.8854 14.9751 13.5193 15.0003 14.1666V15.8333H18.3337V14.1666C18.3337 14.1666 18.3337 11.1416 13.2837 10.8333ZM12.5003 3.3333C11.9267 3.3301 11.3658 3.50159 10.892 3.82496C11.3982 4.53224 11.6704 5.3802 11.6704 6.24996C11.6704 7.11972 11.3982 7.96768 10.892 8.67496C11.3658 8.99833 11.9267 9.16982 12.5003 9.16663C13.2739 9.16663 14.0157 8.85934 14.5627 8.31236C15.1097 7.76538 15.417 7.02351 15.417 6.24996C15.417 5.47641 15.1097 4.73455 14.5627 4.18757C14.0157 3.64059 13.2739 3.3333 12.5003 3.3333Z" fill="#F49B33"/>
</svg>
