<svg width="25" height="25" viewBox="0 0 25 25" fill="none" xmlns="http://www.w3.org/2000/svg">
<path d="M16.6666 17.7083V19.7917H2.08331V17.7083C2.08331 17.7083 2.08331 13.5417 9.37498 13.5417C16.6666 13.5417 16.6666 17.7083 16.6666 17.7083ZM13.0208 7.81251C13.0208 7.09144 12.807 6.38655 12.4064 5.787C12.0058 5.18744 11.4364 4.72015 10.7702 4.4442C10.104 4.16826 9.37093 4.09606 8.66371 4.23673C7.95649 4.37741 7.30687 4.72464 6.79699 5.23452C6.28711 5.7444 5.93988 6.39403 5.7992 7.10125C5.65852 7.80847 5.73072 8.54152 6.00667 9.20771C6.28261 9.8739 6.74991 10.4433 7.34946 10.8439C7.94902 11.2445 8.6539 11.4583 9.37498 11.4583C10.3419 11.4583 11.2692 11.0742 11.953 10.3905C12.6367 9.70678 13.0208 8.77945 13.0208 7.81251ZM16.6041 13.5417C17.2445 14.0373 17.7685 14.6671 18.1392 15.387C18.51 16.1069 18.7184 16.8992 18.75 17.7083V19.7917H22.9166V17.7083C22.9166 17.7083 22.9166 13.9271 16.6041 13.5417ZM15.625 4.16668C14.908 4.16269 14.2068 4.37705 13.6146 4.78126C14.2473 5.66536 14.5875 6.72531 14.5875 7.81251C14.5875 8.89972 14.2473 9.95966 13.6146 10.8438C14.2068 11.248 14.908 11.4623 15.625 11.4583C16.5919 11.4583 17.5192 11.0742 18.203 10.3905C18.8867 9.70678 19.2708 8.77945 19.2708 7.81251C19.2708 6.84558 18.8867 5.91825 18.203 5.23452C17.5192 4.55079 16.5919 4.16668 15.625 4.16668Z" fill="#F49B33"/>
</svg>
