<svg width="20" height="20" viewBox="0 0 20 20" fill="none" xmlns="http://www.w3.org/2000/svg">
<path d="M13.3333 14.1666V15.8333H1.66666V14.1666C1.66666 14.1666 1.66666 10.8333 7.5 10.8333C13.3333 10.8333 13.3333 14.1666 13.3333 14.1666ZM10.4167 6.24996C10.4167 5.6731 10.2456 5.10919 9.92512 4.62955C9.60463 4.14991 9.14911 3.77607 8.61616 3.55531C8.08321 3.33456 7.49676 3.2768 6.93098 3.38934C6.3652 3.50188 5.84551 3.77966 5.4376 4.18757C5.0297 4.59547 4.75191 5.11517 4.63937 5.68095C4.52683 6.24673 4.58459 6.83317 4.80535 7.36612C5.0261 7.89907 5.39994 8.3546 5.87958 8.67508C6.35923 8.99557 6.92313 9.16663 7.5 9.16663C8.27354 9.16663 9.01541 8.85934 9.56239 8.31236C10.1094 7.76538 10.4167 7.02351 10.4167 6.24996ZM13.2833 10.8333C13.7956 11.2298 14.2148 11.7337 14.5114 12.3096C14.808 12.8854 14.9748 13.5193 15 14.1666V15.8333H18.3333V14.1666C18.3333 14.1666 18.3333 11.1416 13.2833 10.8333ZM12.5 3.3333C11.9264 3.3301 11.3654 3.50159 10.8917 3.82496C11.3979 4.53224 11.67 5.3802 11.67 6.24996C11.67 7.11972 11.3979 7.96768 10.8917 8.67496C11.3654 8.99833 11.9264 9.16982 12.5 9.16663C13.2735 9.16663 14.0154 8.85934 14.5624 8.31236C15.1094 7.76538 15.4167 7.02351 15.4167 6.24996C15.4167 5.47641 15.1094 4.73455 14.5624 4.18757C14.0154 3.64059 13.2735 3.3333 12.5 3.3333Z" fill="#F49B33"/>
</svg>
